HIERARCHY
ROOT Hips
{
	OFFSET 0.719733 86.094200 2.458922
	CHANNELS 6 Xposition Yposition Zposition Zrotation Yrotation Xrotation 
	JOINT Spine
	{
		OFFSET 0.000000 8.814246 -2.080107
		CHANNELS 3 Zrotation Yrotation Xrotation
		JOINT Spine1
		{
			OFFSET -0.000000 8.844141 -0.000000
			CHANNELS 3 Zrotation Yrotation Xrotation
			JOINT Spine2
			{
				OFFSET -0.000000 11.682268 0.000000
				CHANNELS 3 Zrotation Yrotation Xrotation
				JOINT Spine3
				{
					OFFSET 0.000000 11.746700 0.000000
					CHANNELS 3 Zrotation Yrotation Xrotation
					JOINT Neck
					{
						OFFSET 0.000000 17.658264 0.000000
						CHANNELS 3 Zrotation Yrotation Xrotation
						JOINT Neck1
						{
							OFFSET -0.000000 5.101515 -0.000000
							CHANNELS 3 Zrotation Yrotation Xrotation
							JOINT Head
							{
								OFFSET 0.000000 5.101515 -0.000000
								CHANNELS 3 Zrotation Yrotation Xrotation
								JOINT HeadEnd
								{
									OFFSET 0.000000 11.655085 0.000000
									CHANNELS 3 Zrotation Yrotation Xrotation
									End Site
									{
										OFFSET 0.000000 0.000000 0.000000
									}
								}
							}
						}
					}
					JOINT RightShoulder
					{
						OFFSET -2.625389 11.175210 -0.000000
						CHANNELS 3 Zrotation Yrotation Xrotation
						JOINT RightArm
						{
							OFFSET 0.000000 10.434715 -0.000000
							CHANNELS 3 Zrotation Yrotation Xrotation
							JOINT RightForeArm
							{
								OFFSET -0.000000 29.628420 -0.000000
								CHANNELS 3 Zrotation Yrotation Xrotation
								JOINT RightHand
								{
									OFFSET 0.000000 22.857611 0.000000
									CHANNELS 3 Zrotation Yrotation Xrotation
									JOINT RightHandThumb1
									{
										OFFSET -2.867323 3.959563 2.944291
										CHANNELS 3 Zrotation Yrotation Xrotation
										JOINT RightHandThumb2
										{
											OFFSET -0.000000 3.350399 0.000000
											CHANNELS 3 Zrotation Yrotation Xrotation
											JOINT RightHandThumb3
											{
												OFFSET -0.000000 3.756509 -0.000000
												CHANNELS 3 Zrotation Yrotation Xrotation
												JOINT RightHandThumb4
												{
													OFFSET -0.000000 3.147345 -0.000000
													CHANNELS 3 Zrotation Yrotation Xrotation
													End Site
													{
														OFFSET 0.000000 0.000000 0.000000
													}
												}
											}
										}
									}
									JOINT RightHandIndex1
									{
										OFFSET -0.086752 10.030893 2.345280
										CHANNELS 3 Zrotation Yrotation Xrotation
										JOINT RightHandIndex2
										{
											OFFSET -0.000000 4.061090 -0.000000
											CHANNELS 3 Zrotation Yrotation Xrotation
											JOINT RightHandIndex3
											{
												OFFSET 0.000000 3.248873 0.000000
												CHANNELS 3 Zrotation Yrotation Xrotation
												JOINT RightHandIndex4
												{
													OFFSET -0.000000 2.639709 -0.000000
													CHANNELS 3 Zrotation Yrotation Xrotation
													End Site
													{
														OFFSET 0.000000 0.000000 0.000000
													}
												}
											}
										}
									}
									JOINT RightHandMiddle1
									{
										OFFSET 0.104102 9.502952 0.006768
										CHANNELS 3 Zrotation Yrotation Xrotation
										JOINT RightHandMiddle2
										{
											OFFSET -0.000000 4.568727 -0.000000
											CHANNELS 3 Zrotation Yrotation Xrotation
											JOINT RightHandMiddle3
											{
												OFFSET -0.000000 3.654981 0.000000
												CHANNELS 3 Zrotation Yrotation Xrotation
												JOINT RightHandMiddle4
												{
													OFFSET 0.000000 2.741236 0.000000
													CHANNELS 3 Zrotation Yrotation Xrotation
													End Site
													{
														OFFSET 0.000000 0.000000 0.000000
													}
												}
											}
										}
									}
									JOINT RightHandRing1
									{
										OFFSET 0.086752 8.921708 -2.267442
										CHANNELS 3 Zrotation Yrotation Xrotation
										JOINT RightHandRing2
										{
											OFFSET -0.000000 4.061090 -0.000000
											CHANNELS 3 Zrotation Yrotation Xrotation
											JOINT RightHandRing3
											{
												OFFSET -0.000000 3.654981 -0.000000
												CHANNELS 3 Zrotation Yrotation Xrotation
												JOINT RightHandRing4
												{
													OFFSET 0.000000 2.741236 0.000000
													CHANNELS 3 Zrotation Yrotation Xrotation
													End Site
													{
														OFFSET 0.000000 0.000000 0.000000
													}
												}
											}
										}
									}
									JOINT RightHandPinky1
									{
										OFFSET -0.173504 7.976997 -4.467199
										CHANNELS 3 Zrotation Yrotation Xrotation
										JOINT RightHandPinky2
										{
											OFFSET -0.000000 3.350399 -0.000000
											CHANNELS 3 Zrotation Yrotation Xrotation
											JOINT RightHandPinky3
											{
												OFFSET -0.000000 2.842763 -0.000000
												CHANNELS 3 Zrotation Yrotation Xrotation
												JOINT RightHandPinky4
												{
													OFFSET 0.000000 2.639709 0.000000
													CHANNELS 3 Zrotation Yrotation Xrotation
													End Site
													{
														OFFSET 0.000000 0.000000 0.000000
													}
												}
											}
										}
									}
									JOINT RightForeArmEnd
									{
										OFFSET 0.000000 0.000000 0.000000
										CHANNELS 3 Zrotation Yrotation Xrotation
										End Site
										{
											OFFSET 0.000000 0.000000 0.000000
										}
									}
								}
								JOINT RightArmEnd
								{
									OFFSET 0.000000 0.000000 0.000000
									CHANNELS 3 Zrotation Yrotation Xrotation
									End Site
									{
										OFFSET 0.000000 0.000000 0.000000
									}
								}
							}
						}
					}
					JOINT LeftShoulder
					{
						OFFSET 2.625389 11.175210 -0.000000
						CHANNELS 3 Zrotation Yrotation Xrotation
						JOINT LeftArm
						{
							OFFSET 0.000000 10.813635 -0.000000
							CHANNELS 3 Zrotation Yrotation Xrotation
							JOINT LeftForeArm
							{
								OFFSET -0.000000 28.724781 0.000000
								CHANNELS 3 Zrotation Yrotation Xrotation
								JOINT LeftHand
								{
									OFFSET 0.644384 25.716167 -0.328871
									CHANNELS 3 Zrotation Yrotation Xrotation
									JOINT LeftHandThumb1
									{
										OFFSET 2.867323 3.959563 2.944291
										CHANNELS 3 Zrotation Yrotation Xrotation
										JOINT LeftHandThumb2
										{
											OFFSET 0.000000 3.350399 -0.000000
											CHANNELS 3 Zrotation Yrotation Xrotation
											JOINT LeftHandThumb3
											{
												OFFSET -0.000000 3.756509 -0.000000
												CHANNELS 3 Zrotation Yrotation Xrotation
												JOINT LeftHandThumb4
												{
													OFFSET -0.000000 3.100000 0.000000
													CHANNELS 3 Zrotation Yrotation Xrotation
													End Site
													{
														OFFSET 0.000000 0.000000 0.000000
													}
												}
											}
										}
									}
									JOINT LeftHandIndex1
									{
										OFFSET 0.086752 10.030893 2.345280
										CHANNELS 3 Zrotation Yrotation Xrotation
										JOINT LeftHandIndex2
										{
											OFFSET -0.000000 4.061090 0.000000
											CHANNELS 3 Zrotation Yrotation Xrotation
											JOINT LeftHandIndex3
											{
												OFFSET -0.000000 3.248873 0.000000
												CHANNELS 3 Zrotation Yrotation Xrotation
												JOINT LeftHandIndex4
												{
													OFFSET 0.000000 2.639709 -0.000000
													CHANNELS 3 Zrotation Yrotation Xrotation
													End Site
													{
														OFFSET 0.000000 0.000000 0.000000
													}
												}
											}
										}
									}
									JOINT LeftHandMiddle1
									{
										OFFSET -0.104102 9.502952 0.006768
										CHANNELS 3 Zrotation Yrotation Xrotation
										JOINT LeftHandMiddle2
										{
											OFFSET -0.000000 4.568727 0.000000
											CHANNELS 3 Zrotation Yrotation Xrotation
											JOINT LeftHandMiddle3
											{
												OFFSET 0.000000 3.654981 0.000000
												CHANNELS 3 Zrotation Yrotation Xrotation
												JOINT LeftHandMiddle4
												{
													OFFSET 0.000000 2.741236 -0.000000
													CHANNELS 3 Zrotation Yrotation Xrotation
													End Site
													{
														OFFSET 0.000000 0.000000 0.000000
													}
												}
											}
										}
									}
									JOINT LeftHandRing1
									{
										OFFSET -0.086752 8.921708 -2.267442
										CHANNELS 3 Zrotation Yrotation Xrotation
										JOINT LeftHandRing2
										{
											OFFSET -0.000000 4.061090 0.000000
											CHANNELS 3 Zrotation Yrotation Xrotation
											JOINT LeftHandRing3
											{
												OFFSET -0.000000 3.654981 0.000000
												CHANNELS 3 Zrotation Yrotation Xrotation
												JOINT LeftHandRing4
												{
													OFFSET -0.000000 2.741236 0.000000
													CHANNELS 3 Zrotation Yrotation Xrotation
													End Site
													{
														OFFSET 0.000000 0.000000 0.000000
													}
												}
											}
										}
									}
									JOINT LeftHandPinky1
									{
										OFFSET 0.173504 7.976997 -4.467199
										CHANNELS 3 Zrotation Yrotation Xrotation
										JOINT LeftHandPinky2
										{
											OFFSET 0.000000 3.350399 -0.000000
											CHANNELS 3 Zrotation Yrotation Xrotation
											JOINT LeftHandPinky3
											{
												OFFSET -0.000000 2.842763 0.000000
												CHANNELS 3 Zrotation Yrotation Xrotation
												JOINT LeftHandPinky4
												{
													OFFSET -0.000000 2.639709 0.000000
													CHANNELS 3 Zrotation Yrotation Xrotation
													End Site
													{
														OFFSET 0.000000 0.000000 0.000000
													}
												}
											}
										}
									}
									JOINT LeftForeArmEnd
									{
										OFFSET 0.000000 0.000000 0.000000
										CHANNELS 3 Zrotation Yrotation Xrotation
										End Site
										{
											OFFSET 0.000000 0.000000 0.000000
										}
									}
								}
								JOINT LeftArmEnd
								{
									OFFSET 0.000000 0.000000 0.000000
									CHANNELS 3 Zrotation Yrotation Xrotation
									End Site
									{
										OFFSET 0.000000 0.000000 0.000000
									}
								}
							}
						}
					}
				}
			}
		}
	}
	JOINT RightUpLeg
	{
		OFFSET -11.289943 -0.000000 -0.000000
		CHANNELS 3 Zrotation Yrotation Xrotation
		JOINT RightLeg
		{
			OFFSET -0.000000 -38.200325 -0.000000
			CHANNELS 3 Zrotation Yrotation Xrotation
			JOINT RightFoot
			{
				OFFSET -0.000000 -39.900856 -0.000000
				CHANNELS 3 Zrotation Yrotation Xrotation
				JOINT RightToeBase
				{
					OFFSET 0.000000 0.000000 15.261641
					CHANNELS 3 Zrotation Yrotation Xrotation
					JOINT RightToeBaseEnd
					{
						OFFSET 0.000000 0.000000 7.370709
						CHANNELS 3 Zrotation Yrotation Xrotation
						End Site
						{
							OFFSET 0.000000 0.000000 0.000000
						}
					}
				}
				JOINT RightLegEnd
				{
					OFFSET 0.000000 0.000000 0.000000
					CHANNELS 3 Zrotation Yrotation Xrotation
					End Site
					{
						OFFSET 0.000000 0.000000 0.000000
					}
				}
			}
			JOINT RightUpLegEnd
			{
				OFFSET 0.000000 0.000000 0.000000
				CHANNELS 3 Zrotation Yrotation Xrotation
				End Site
				{
					OFFSET 0.000000 0.000000 0.000000
				}
			}
		}
	}
	JOINT LeftUpLeg
	{
		OFFSET 11.315661 0.000000 -0.000000
		CHANNELS 3 Zrotation Yrotation Xrotation
		JOINT LeftLeg
		{
			OFFSET -0.000000 -38.200325 -0.000000
			CHANNELS 3 Zrotation Yrotation Xrotation
			JOINT LeftFoot
			{
				OFFSET -0.000000 -39.900856 0.000000
				CHANNELS 3 Zrotation Yrotation Xrotation
				JOINT LeftToeBase
				{
					OFFSET -0.000000 0.000000 15.261641
					CHANNELS 3 Zrotation Yrotation Xrotation
					JOINT LeftToeBaseEnd
					{
						OFFSET -0.000000 -0.000000 7.539996
						CHANNELS 3 Zrotation Yrotation Xrotation
						End Site
						{
							OFFSET 0.000000 0.000000 0.000000
						}
					}
				}
				JOINT LeftLegEnd
				{
					OFFSET 0.000000 0.000000 0.000000
					CHANNELS 3 Zrotation Yrotation Xrotation
					End Site
					{
						OFFSET 0.000000 0.000000 0.000000
					}
				}
			}
			JOINT LeftUpLegEnd
			{
				OFFSET 0.000000 0.000000 0.000000
				CHANNELS 3 Zrotation Yrotation Xrotation
				End Site
				{
					OFFSET 0.000000 0.000000 0.000000
				}
			}
		}
	}
}
MOTION
Frames: 5
Frame Time: 0.016667
1.943843 85.814796 13.000996 -0.942758 1.534418 -15.193316 1.057793 -0.592780 6.724849 3.502602 -1.152890 3.831958 -2.112876 0.221598 13.239084 -1.071507 -0.216383 1.542056 6.062348 1.210692 12.653675 -3.262747 0.587614 -7.087650 0.554298 3.667682 -24.543358 0.000000 0.000000 0.000000 97.428543 -0.885992 5.563962 56.478676 -27.163399 8.461985 1.889928 19.595600 38.274040 2.043958 8.840082 -11.682436 10.279845 -1.793193 40.088573 0.000013 0.000034 -24.961803 0.000028 0.000031 -17.368208 0.000012 -0.000006 -0.000038 15.032173 0.061222 -7.858462 10.385958 -0.007168 0.099223 10.215726 0.022150 0.099163 -0.000010 0.000014 -0.000020 15.079469 0.022416 -10.139492 10.432755 -0.004805 0.041508 10.239594 0.004596 0.035141 0.000040 0.000029 -0.000012 16.173651 -0.035794 -11.862629 11.198537 0.011395 -0.030986 11.027076 -0.000536 -0.022004 0.000001 -0.000893 0.000030 16.415855 0.028346 -14.713875 11.032271 0.022245 -0.128140 11.203980 -0.014200 -0.149647 0.000230 -0.000009 -0.000023 0.000000 0.000000 0.000000 0.000000 0.000000 0.000000 -94.133949 0.344910 5.322025 -59.649986 26.149870 0.548109 -2.959124 -13.104126 50.324677 0.643507 -16.899836 -16.715555 -6.857865 1.459196 41.581490 -0.000003 0.000018 -16.745539 -0.000109 -0.000000 -11.581503 -0.000449 -0.000011 0.000408 -2.718878 0.042688 -12.420746 -3.911539 -0.033425 -0.108650 -3.939118 0.000737 -0.076489 0.000002 -0.001282 -0.000003 -5.008372 0.034000 -14.489281 -5.035998 -0.019778 -0.039930 -4.712792 -0.001947 -0.031626 -0.001301 -0.000045 0.000256 -10.305668 0.004701 -14.380722 -7.373619 0.019958 0.066911 -7.302710 0.001656 0.046754 -0.000554 0.000015 0.000008 -14.647545 0.004954 -14.640952 -9.531684 0.013565 0.062676 -9.494060 -0.031466 0.067641 0.000276 -0.000006 -0.000015 0.000000 0.000000 0.000000 0.000000 0.000000 0.000000 -4.039131 -2.253440 12.900325 -0.322628 -0.913106 21.938053 1.553964 -15.298660 11.240936 -0.658823 -0.826723 -28.394070 0.000000 0.000000 0.000000 0.000000 0.000000 0.000000 0.000000 0.000000 0.000000 5.731869 -3.080333 9.036201 0.330225 0.757175 25.755289 0.717167 2.066510 9.936260 -0.174086 0.268561 -29.148212 0.000000 0.000000 0.000000 0.000000 0.000000 0.000000 0.000000 0.000000 0.000000 
2.451766 85.789658 13.148850 -0.617401 1.665059 -15.446170 0.870852 -0.546579 6.734581 3.641711 -1.167854 3.756166 -2.575918 0.613335 13.410484 -1.090415 -0.149972 1.570319 5.906192 1.245328 12.785757 -3.275910 0.509730 -7.027225 0.602470 3.684876 -24.616890 0.000000 0.000000 0.000000 97.510269 -0.908956 5.616524 56.460808 -27.363049 8.678200 1.863553 19.535185 38.422379 1.931969 8.555257 -11.676286 10.296402 -1.796986 40.079208 0.000014 0.000034 -24.990566 0.000028 0.000032 -17.389219 0.000012 -0.000006 -0.000038 15.228483 0.060776 -7.766810 10.467604 -0.008066 0.104560 10.297590 0.021168 0.103168 -0.000010 0.000013 -0.000019 15.267352 0.021691 -10.063479 10.515230 -0.004832 0.041799 10.316251 0.004372 0.035181 0.000040 0.000030 -0.000012 16.272638 -0.035737 -11.802839 11.286404 0.011805 -0.034919 11.121593 -0.000210 -0.024445 0.000001 -0.000911 0.000030 16.477926 0.025909 -14.677396 11.106828 0.023577 -0.140661 11.277682 -0.011395 -0.159200 0.000235 -0.000009 -0.000024 0.000000 0.000000 0.000000 0.000000 0.000000 0.000000 -94.214142 0.356429 5.229278 -59.310444 26.291594 0.544523 -2.993030 -13.187098 50.740723 0.429343 -17.156170 -16.564375 -6.887781 1.463259 41.567287 -0.000002 0.000018 -16.804977 -0.000110 -0.000000 -11.630327 -0.000551 -0.000011 0.000451 -2.985456 0.042714 -12.420011 -4.048976 -0.033100 -0.115587 -4.070792 0.001222 -0.081731 0.000001 -0.001333 -0.000003 -5.278479 0.034180 -14.484155 -5.166291 -0.019249 -0.042317 -4.851235 -0.002020 -0.033972 -0.001286 -0.000045 0.000259 -10.525559 0.004656 -14.332684 -7.482532 0.019975 0.070758 -7.410070 0.001827 0.049121 -0.000558 0.000015 0.000008 -14.793365 0.002653 -14.567405 -9.606396 0.013850 0.076494 -9.557931 -0.030611 0.078000 0.000235 -0.000006 -0.000015 0.000000 0.000000 0.000000 0.000000 0.000000 0.000000 -4.822680 -2.198494 13.191307 -0.333582 -0.937056 22.073668 1.948467 -15.221262 11.057038 -0.700985 -0.843511 -28.274290 0.000000 0.000000 0.000000 0.000000 0.000000 0.000000 0.000000 0.000000 0.000000 5.063438 -2.920677 9.582030 0.319037 0.743152 25.375650 1.061223 2.162589 9.859766 -0.182809 0.248213 -29.021227 0.000000 0.000000 0.000000 0.000000 0.000000 0.000000 0.000000 0.000000 0.000000 
2.965525 85.762512 13.288792 -0.277887 1.761131 -15.686208 0.678843 -0.499329 6.746047 3.781797 -1.182618 3.675771 -3.046598 1.001561 13.578749 -1.106378 -0.087491 1.598654 5.757505 1.285498 12.913256 -3.282312 0.443349 -6.966278 0.647155 3.698534 -24.684847 0.000000 0.000000 0.000000 97.575493 -0.925223 5.689806 56.437340 -27.624500 8.951170 1.834611 19.462656 38.545433 1.778836 8.285936 -11.688318 10.308681 -1.799883 40.072109 0.000015 0.000034 -25.009544 0.000029 0.000032 -17.402472 0.000012 -0.000006 -0.000038 15.413296 0.059812 -7.673631 10.537496 -0.008680 0.109991 10.367796 0.020428 0.107423 -0.000009 0.000013 -0.000019 15.441476 0.020817 -9.983829 10.587703 -0.004767 0.042240 10.382310 0.004202 0.035447 0.000039 0.000031 -0.000012 16.351629 -0.035687 -11.739213 11.358190 0.012124 -0.039528 11.201258 0.000123 -0.027457 0.000001 -0.000921 0.000030 16.522161 0.024134 -14.635673 11.167939 0.025073 -0.155540 11.338853 -0.008419 -0.170959 0.000248 -0.000009 -0.000025 0.000000 0.000000 0.000000 0.000000 0.000000 0.000000 -94.284660 0.365414 5.155298 -58.975475 26.486204 0.563001 -3.024788 -13.258418 51.134991 0.207763 -17.436813 -16.420486 -6.930951 1.468374 41.547783 -0.000002 0.000017 -16.896013 -0.000111 -0.000001 -11.701119 -0.000649 -0.000010 0.000487 -3.308892 0.042398 -12.443471 -4.208820 -0.032099 -0.119957 -4.225158 0.002290 -0.084698 0.000000 -0.001386 -0.000003 -5.600877 0.034216 -14.498485 -5.319087 -0.018438 -0.043775 -5.012403 -0.001881 -0.035574 -0.001273 -0.000045 0.000263 -10.791723 0.004830 -14.300549 -7.614528 0.019644 0.073379 -7.541525 0.001798 0.050737 -0.000562 0.000015 0.000008 -14.978604 0.001395 -14.500916 -9.704550 0.013275 0.087487 -9.644547 -0.030319 0.086044 0.000178 -0.000005 -0.000015 0.000000 0.000000 0.000000 0.000000 0.000000 0.000000 -5.618363 -2.125349 13.445520 -0.344318 -0.958897 22.231445 2.339085 -15.119541 10.870329 -0.741718 -0.861489 -28.150633 0.000000 0.000000 0.000000 0.000000 0.000000 0.000000 0.000000 0.000000 0.000000 4.382992 -2.732901 10.106302 0.307914 0.726889 25.004309 1.412584 2.271332 9.798178 -0.192805 0.228099 -28.903065 0.000000 0.000000 0.000000 0.000000 0.000000 0.000000 0.000000 0.000000 0.000000 
3.482730 85.732712 13.420920 0.071340 1.826164 -15.910886 0.482151 -0.451229 6.759344 3.918664 -1.196660 3.589618 -3.513829 1.377976 13.742233 -1.121500 -0.030151 1.626745 5.616985 1.329940 13.024911 -3.281902 0.388301 -6.911485 0.688823 3.708547 -24.746016 0.000000 0.000000 0.000000 97.624466 -0.935943 5.780634 56.400688 -27.949621 9.280331 1.805256 19.380095 38.633179 1.604848 8.020741 -11.718629 10.317449 -1.801783 40.067139 0.000015 0.000034 -25.020334 0.000030 0.000032 -17.409204 0.000012 -0.000006 -0.000038 15.578423 0.058489 -7.587005 10.593393 -0.008727 0.115374 10.424066 0.020218 0.111987 -0.000009 0.000013 -0.000018 15.592921 0.019857 -9.905980 10.647035 -0.004537 0.042869 10.434795 0.004170 0.036024 0.000039 0.000031 -0.000011 16.406630 -0.035646 -11.675112 11.411599 0.012220 -0.044837 11.263433 0.000388 -0.031082 0.000002 -0.000929 0.000029 16.547346 0.023054 -14.590762 11.213724 0.026213 -0.172897 11.385097 -0.005763 -0.185150 0.000265 -0.000009 -0.000026 0.000000 0.000000 0.000000 0.000000 0.000000 0.000000 -94.342705 0.372087 5.101947 -58.636719 26.721836 0.613373 -3.053502 -13.314760 51.478275 -0.041878 -17.741039 -16.278429 -6.985094 1.474336 41.523781 -0.000001 0.000017 -17.014894 -0.000112 -0.000001 -11.791337 -0.000743 -0.000010 0.000513 -3.675565 0.041786 -12.491343 -4.384332 -0.030235 -0.121691 -4.395930 0.004100 -0.085391 0.000000 -0.001441 -0.000003 -5.962531 0.034137 -14.533403 -5.487693 -0.017316 -0.044293 -5.190041 -0.001497 -0.036451 -0.001263 -0.000045 0.000269 -11.095341 0.005210 -14.287813 -7.764578 0.018897 0.074895 -7.691958 0.001531 0.051685 -0.000557 0.000014 0.000007 -15.201970 0.001110 -14.447396 -9.823617 0.011679 0.096399 -9.752436 -0.030731 0.092364 0.000106 -0.000005 -0.000014 0.000000 0.000000 0.000000 0.000000 0.000000 0.000000 -6.416964 -2.033629 13.658860 -0.354822 -0.978746 22.411203 2.726893 -15.004809 10.681249 -0.781439 -0.879699 -28.024693 0.000000 0.000000 0.000000 0.000000 0.000000 0.000000 0.000000 0.000000 0.000000 3.695240 -2.524667 10.598861 0.296908 0.708016 24.649176 1.773009 2.383728 9.748849 -0.205429 0.209200 -28.793409 0.000000 0.000000 0.000000 0.000000 0.000000 0.000000 0.000000 0.000000 0.000000 
4.001157 85.700089 13.546066 0.427158 1.864652 -16.118540 0.280717 -0.402626 6.773074 4.050460 -1.209893 3.497760 -3.973150 1.738865 13.900972 -1.136283 0.022129 1.654160 5.486999 1.378055 13.110995 -3.275058 0.345254 -6.869383 0.727792 3.716174 -24.798388 0.000000 0.000000 0.000000 97.657463 -0.941933 5.879920 56.356827 -28.313890 9.641218 1.777794 19.284140 38.692177 1.435896 7.750914 -11.761388 10.324378 -1.802981 40.063259 0.000016 0.000034 -25.027967 0.000030 0.000032 -17.413250 0.000011 -0.000006 -0.000038 15.725772 0.056977 -7.509634 10.636649 -0.008105 0.119950 10.468058 0.020643 0.116240 -0.000008 0.000013 -0.000017 15.723510 0.018860 -9.833235 10.694039 -0.004110 0.043473 10.474713 0.004326 0.036717 0.000038 0.000030 -0.000010 16.439108 -0.035637 -11.615747 11.447835 0.012060 -0.050618 11.309196 0.000533 -0.035151 0.000002 -0.000934 0.000029 16.552891 0.022579 -14.549176 11.244201 0.026889 -0.192404 11.416030 -0.003566 -0.201389 0.000285 -0.000009 -0.000027 0.000000 0.000000 0.000000 0.000000 0.000000 0.000000 -94.389549 0.376604 5.063382 -58.295639 26.982700 0.692488 -3.079142 -13.353421 51.764648 -0.323757 -18.052588 -16.126108 -7.045414 1.480681 41.497189 -0.000001 0.000017 -17.151047 -0.000114 -0.000001 -11.893594 -0.000830 -0.000010 0.000524 -4.064115 0.040986 -12.550548 -4.564949 -0.027557 -0.120699 -4.572487 0.006600 -0.083677 -0.000000 -0.001500 -0.000003 -6.343267 0.033987 -14.580152 -5.660939 -0.015921 -0.043856 -5.372566 -0.000876 -0.036573 -0.001258 -0.000045 0.000275 -11.414920 0.005713 -14.290997 -7.920331 0.017768 0.075410 -7.848716 0.001034 0.052030 -0.000537 0.000014 0.000007 -15.442990 0.001607 -14.408052 -9.950691 0.009295 0.103763 -9.868991 -0.031766 0.097319 0.000025 -0.000005 -0.000014 0.000000 0.000000 0.000000 0.000000 0.000000 0.000000 -7.210938 -1.922212 13.829710 -0.365114 -0.996608 22.615623 3.112556 -14.882889 10.489761 -0.820071 -0.898264 -27.899149 0.000000 0.000000 0.000000 0.000000 0.000000 0.000000 0.000000 0.000000 0.000000 3.002265 -2.301985 11.054765 0.286053 0.686537 24.313393 2.142431 2.495188 9.710076 -0.220994 0.191987 -28.692667 0.000000 0.000000 0.000000 0.000000 0.000000 0.000000 0.000000 0.000000 0.000000 
